<svg width="108" height="21" viewBox="0 0 108 21" fill="none" xmlns="http://www.w3.org/2000/svg">
<path d="M14.02 3.395C14.32 3.725 14.56 4.145 14.74 4.655C14.92 5.135 15.01 5.72 15.01 6.41V14.42C15.01 15.17 14.92 15.8 14.74 16.31C14.56 16.82 14.32 17.225 14.02 17.525L12.49 19.145C12.19 19.415 11.77 19.625 11.23 19.775C10.69 19.925 10.09 20 9.43 20H3.85C1.42 20 0.205 18.86 0.205 16.58V4.205C0.205 1.865 1.42 0.694999 3.85 0.694999H9.25C10.69 0.784999 11.725 1.1 12.355 1.64L13.165 2.495L14.02 3.395ZM6.01 2.45C4.24 2.45 3.355 3.305 3.355 5.015V15.77C3.355 17.48 4.255 18.335 6.055 18.335H7.09C8.44 18.365 9.46 18.095 10.15 17.525L10.78 16.985C11.5 16.205 11.86 15.275 11.86 14.195V6.59C11.8 6.11 11.68 5.645 11.5 5.195C11.32 4.745 11.035 4.31 10.645 3.89L10.195 3.44C9.835 3.11 9.415 2.885 8.935 2.765C8.455 2.645 7.93 2.54 7.36 2.45H6.01ZM21.433 20.09C20.413 20.09 19.903 19.355 19.903 17.885L19.858 2.54C19.858 1.13 20.368 0.424999 21.388 0.424999C22.438 0.424999 22.963 1.145 22.963 2.585L23.008 17.885C23.008 19.355 22.483 20.09 21.433 20.09ZM40.8516 2.45H33.5166C31.8366 2.45 30.9966 3.305 30.9966 5.015V15.77C30.9966 17.48 31.8816 18.335 33.6516 18.335H36.8466C38.6166 18.335 39.5016 17.27 39.5016 15.14V12.665C39.5016 11.435 38.7966 10.82 37.3866 10.82H35.3616C34.2216 10.82 33.6516 10.535 33.6516 9.965C33.6516 9.395 34.1916 9.11 35.2716 9.11H39.3216C41.5416 9.11 42.6516 10.055 42.6516 11.945V16.985C42.6516 18.995 41.4066 20 38.9166 20H31.4466C29.0466 20 27.8466 18.935 27.8466 16.805V3.98C27.8466 1.79 29.0616 0.694999 31.4916 0.694999H40.9416C42.0816 0.694999 42.6516 0.979999 42.6516 1.55C42.6516 2.15 42.0516 2.45 40.8516 2.45ZM49.0746 20.09C48.0546 20.09 47.5446 19.355 47.5446 17.885L47.4996 2.54C47.4996 1.13 48.0096 0.424999 49.0296 0.424999C50.0796 0.424999 50.6046 1.145 50.6046 2.585L50.6496 17.885C50.6496 19.355 50.1246 20.09 49.0746 20.09ZM66.2882 7.85C66.9182 7.22 67.2332 6.425 67.2332 5.465V4.475C67.1732 3.815 66.9632 3.32 66.6032 2.99C66.2432 2.63 65.7182 2.45 65.0282 2.45H61.3382C59.5982 2.45 58.7282 3.455 58.7282 5.465V6.68C58.7282 8.69 59.5832 9.695 61.2932 9.695H62.5982C63.5882 9.695 64.3832 9.41 64.9832 8.84L66.2882 7.85ZM68.7632 20.18C67.7432 20.18 67.2332 19.535 67.2332 18.245V15.05C67.2332 14.81 67.1432 14.555 66.9632 14.285C66.7832 13.985 66.5432 13.685 66.2432 13.385L64.9382 12.305C64.1882 11.735 63.5132 11.45 62.9132 11.45H61.2932C59.5832 11.45 58.7282 12.305 58.7282 14.015V18.11C58.7282 19.49 58.2032 20.18 57.1532 20.18C56.1032 20.18 55.5782 19.445 55.5782 17.975V3.98C55.5782 1.79 56.7332 0.694999 59.0432 0.694999H66.5132C69.0932 0.694999 70.3832 1.715 70.3832 3.755V6.725C70.2332 7.595 69.5882 8.51 68.4482 9.47C67.9982 9.83 67.7732 10.205 67.7732 10.595C67.7732 10.955 67.9832 11.33 68.4032 11.72C69.6032 12.86 70.2632 13.79 70.3832 14.51V18.155C70.3832 19.505 69.8432 20.18 68.7632 20.18ZM80.8113 18.335H88.1913C89.1513 18.335 89.6313 18.62 89.6313 19.19C89.6313 19.73 89.1663 20 88.2363 20H78.4712C76.0413 20 74.8263 19.01 74.8263 17.03V3.755C74.8263 1.715 76.0413 0.694999 78.4712 0.694999H88.2363C89.1663 0.694999 89.6313 0.979999 89.6313 1.55C89.6313 2.15 89.1513 2.45 88.1913 2.45H80.8113C78.9213 2.45 77.9763 3.23 77.9763 4.79V6.725C77.9763 8.315 78.8913 9.11 80.7213 9.11H88.1463C89.1363 9.11 89.6313 9.365 89.6313 9.875C89.6313 10.505 89.1513 10.82 88.1913 10.82H80.7213C78.8913 10.82 77.9763 11.615 77.9763 13.205V16.085C77.9763 17.585 78.9213 18.335 80.8113 18.335ZM104.453 15.905C104.453 15.605 104.573 15.35 104.813 15.14C105.053 14.93 105.458 14.825 106.028 14.825C107.078 14.825 107.603 15.305 107.603 16.265V17.03C107.603 19.01 106.463 20 104.183 20H96.0828C93.8928 20 92.7978 18.935 92.7978 16.805V3.98C92.7978 1.79 93.9078 0.694999 96.1278 0.694999H104.183C106.463 0.694999 107.603 1.685 107.603 3.665V4.34C107.603 5.42 107.078 5.96 106.028 5.96C104.978 5.96 104.453 5.615 104.453 4.925C104.453 3.275 103.538 2.45 101.708 2.45H98.6478C96.8478 2.45 95.9478 3.23 95.9478 4.79V16.04C95.9478 17.57 96.8328 18.335 98.6028 18.335H101.798C103.568 18.335 104.453 17.525 104.453 15.905Z" fill="black"/>
</svg>
