<svg width="23" height="24" viewBox="0 0 23 24" fill="none" xmlns="http://www.w3.org/2000/svg">
<path fill-rule="evenodd" clip-rule="evenodd" d="M8.88146 1.90093C9.0203 1.36617 9.50619 1 10.054 1H13.2115C13.7617 1 14.2491 1.36931 14.3857 1.90717L15.0239 4.42109C15.0379 4.47643 15.0828 4.53741 15.1632 4.57452C15.5913 4.77228 16.0017 5.00569 16.3897 5.27225C16.4612 5.32137 16.5403 5.33195 16.6028 5.3147L19.1228 4.61911C19.6505 4.47343 20.2159 4.69707 20.4945 5.17226L22.0732 7.86556C22.3543 8.34512 22.2668 8.95131 21.8653 9.33369L19.9739 11.135C19.93 11.1769 19.9015 11.2445 19.9085 11.3253C19.9486 11.7881 19.9487 12.2535 19.9089 12.7163C19.9018 12.7981 19.9311 12.8664 19.9759 12.9083L21.8541 14.6631C22.2624 15.0445 22.3538 15.6558 22.0705 16.1391L20.4916 18.8326C20.2152 19.304 19.6563 19.5283 19.1314 19.3889L16.5326 18.6988C16.4712 18.6825 16.394 18.693 16.3236 18.7405C15.935 19.0032 15.5245 19.2327 15.0966 19.4268C15.0131 19.4646 14.9672 19.5283 14.954 19.5856L14.3795 22.0682C14.2523 22.6182 13.759 23 13.1995 23L10.0482 23C9.50483 23 9.0218 22.6396 8.87878 22.1106L8.18617 19.5489C8.17163 19.4952 8.12769 19.4363 8.04992 19.3996C7.62484 19.1995 7.21773 18.9642 6.833 18.6961C6.75888 18.6444 6.67611 18.6344 6.61176 18.6539L4.14159 19.4053C3.60661 19.568 3.02403 19.3463 2.73951 18.861L1.16391 16.1731C0.886308 15.6995 0.967921 15.1014 1.35868 14.7177L3.26482 12.8461C3.3069 12.8048 3.33422 12.7391 3.328 12.6604C3.29114 12.1944 3.29477 11.7261 3.33884 11.2608C3.34662 11.1786 3.3176 11.1097 3.27269 11.0674L1.3833 9.28962C0.977524 8.90781 0.887523 8.29842 1.17003 7.81648L2.74556 5.12873C3.02532 4.65148 3.59416 4.42821 4.12343 4.57731L6.65298 5.2899C6.71574 5.30758 6.79544 5.29717 6.86741 5.24777C7.25553 4.98132 7.66595 4.74803 8.09419 4.5504C8.17404 4.51355 8.21885 4.45311 8.23312 4.39814L8.88146 1.90093ZM10.054 2C9.95237 2 9.87142 2.06731 9.84937 2.15223L9.20103 4.64943C9.1044 5.0216 8.8387 5.30817 8.51321 5.45838C8.13611 5.63241 7.77486 5.83777 7.43338 6.07219C7.13593 6.27639 6.75202 6.35672 6.38183 6.25244L3.85227 5.53984C3.75446 5.51229 3.65462 5.55536 3.60826 5.63444L2.03274 8.32219C1.98752 8.39931 2.00042 8.49721 2.06857 8.56133L3.95796 10.3391C4.244 10.6083 4.3691 10.9884 4.33438 11.355C4.29577 11.7629 4.29259 12.1732 4.32489 12.5816C4.35271 12.9333 4.23378 13.2961 3.96544 13.5596L2.0593 15.4312C1.99386 15.4955 1.98214 15.5915 2.02662 15.6673L3.60222 18.3552C3.64939 18.4357 3.75174 18.4786 3.85058 18.4486L6.32075 17.6972C6.70088 17.5816 7.09907 17.6627 7.40471 17.8756C7.7432 18.1115 8.10153 18.3187 8.47583 18.4949C8.79353 18.6444 9.05325 18.9245 9.15151 19.2879L9.84412 21.8496C9.86686 21.9337 9.94746 22 10.0482 22L13.1995 22C13.3033 22 13.3851 21.9299 13.4053 21.8428L13.9797 19.3602C14.0698 18.9707 14.3446 18.6698 14.6836 18.516C15.0605 18.3451 15.4218 18.1431 15.7637 17.912C16.0548 17.7153 16.4275 17.6363 16.7893 17.7323L19.388 18.4224C19.4851 18.4482 19.5831 18.405 19.6289 18.3269L21.2078 15.6334C21.2531 15.5561 21.24 15.4579 21.1714 15.3938L19.2932 13.639C19.0079 13.3724 18.8812 12.9955 18.9126 12.6306C18.9475 12.225 18.9474 11.8172 18.9122 11.4116C18.8809 11.0506 19.0045 10.6774 19.2842 10.4109L21.1756 8.60956C21.243 8.54539 21.2555 8.44804 21.2105 8.37127L19.6317 5.67797C19.5856 5.59924 19.4864 5.55614 19.3888 5.58306L16.8689 6.27865C16.5004 6.38037 16.1191 6.29961 15.8235 6.09651C15.4821 5.86198 15.1209 5.65651 14.7439 5.48237C14.4165 5.33118 14.1498 5.04208 14.0546 4.66715L13.4164 2.15323C13.3947 2.06788 13.3136 2 13.2115 2H10.054ZM11.6345 9C9.94086 9 8.58091 10.3503 8.58091 12C8.58091 13.6497 9.94086 15 11.6345 15C13.3281 15 14.6881 13.6497 14.6881 12C14.6881 10.3503 13.3281 9 11.6345 9ZM7.58091 12C7.58091 9.78373 9.40295 8 11.6345 8C13.866 8 15.6881 9.78373 15.6881 12C15.6881 14.2163 13.866 16 11.6345 16C9.40295 16 7.58091 14.2163 7.58091 12Z" fill="#A6ADB8"/>
<path d="M8.04992 19.3996C8.12769 19.4363 8.17163 19.4952 8.18617 19.5489L8.87878 22.1106C9.0218 22.6396 9.50483 23 10.0482 23L13.1995 23C13.759 23 14.2523 22.6182 14.3795 22.0682L14.954 19.5856C14.9672 19.5283 15.0131 19.4646 15.0966 19.4268C15.5245 19.2327 15.935 19.0032 16.3236 18.7405C16.394 18.693 16.4712 18.6825 16.5326 18.6988L19.1314 19.3889C19.6563 19.5283 20.2152 19.304 20.4916 18.8326L22.0705 16.1391C22.3538 15.6558 22.2624 15.0445 21.8541 14.6631L19.9759 12.9083C19.9311 12.8664 19.9018 12.7981 19.9089 12.7163C19.9487 12.2535 19.9486 11.7881 19.9085 11.3253C19.9015 11.2445 19.93 11.1769 19.9739 11.135L21.8653 9.33369C22.2668 8.95131 22.3543 8.34512 22.0732 7.86556L20.4945 5.17226C20.2159 4.69707 19.6505 4.47343 19.1228 4.61911L16.6028 5.3147C16.5403 5.33195 16.4612 5.32137 16.3897 5.27225C16.0017 5.00569 15.5913 4.77228 15.1632 4.57452C15.0828 4.53741 15.0379 4.47643 15.0239 4.42109L14.3857 1.90717C14.2491 1.36931 13.7617 1 13.2115 1H10.054C9.50619 1 9.0203 1.36617 8.88146 1.90093L8.23312 4.39814C8.21885 4.45311 8.17404 4.51355 8.09419 4.5504C7.66595 4.74803 7.25553 4.98132 6.86741 5.24777C6.79544 5.29717 6.71574 5.30758 6.65298 5.2899L4.12343 4.57731C3.59416 4.42821 3.02532 4.65148 2.74556 5.12873L1.17003 7.81648C0.887523 8.29842 0.977524 8.90781 1.3833 9.28962L3.27269 11.0674C3.3176 11.1097 3.34662 11.1786 3.33884 11.2608C3.29477 11.7261 3.29114 12.1944 3.328 12.6604C3.33422 12.7391 3.3069 12.8048 3.26482 12.8461L1.35868 14.7177C0.967921 15.1014 0.886308 15.6995 1.16391 16.1731L2.73951 18.861C3.02403 19.3463 3.60661 19.568 4.14159 19.4053L6.61176 18.6539C6.67611 18.6344 6.75888 18.6444 6.833 18.6961C7.21773 18.9642 7.62484 19.1995 8.04992 19.3996ZM8.04992 19.3996L8.24619 18.9827M2.03274 8.32219L3.60826 5.63444C3.65462 5.55536 3.75446 5.51229 3.85227 5.53984L6.38183 6.25244C6.75202 6.35672 7.13593 6.27639 7.43338 6.07219C7.77486 5.83777 8.13611 5.63241 8.51321 5.45838C8.8387 5.30817 9.1044 5.0216 9.20103 4.64943L9.84937 2.15223C9.87142 2.06731 9.95237 2 10.054 2H13.2115C13.3136 2 13.3947 2.06788 13.4164 2.15323L14.0546 4.66715C14.1498 5.04208 14.4165 5.33118 14.7439 5.48237C15.1209 5.65651 15.4821 5.86198 15.8235 6.09651C16.1191 6.29961 16.5004 6.38037 16.8689 6.27865L19.3888 5.58306C19.4864 5.55614 19.5856 5.59924 19.6317 5.67797L21.2105 8.37127C21.2555 8.44804 21.243 8.54539 21.1756 8.60956L19.2842 10.4109C19.0045 10.6774 18.8809 11.0506 18.9122 11.4116C18.9474 11.8172 18.9475 12.225 18.9126 12.6306C18.8812 12.9955 19.0079 13.3724 19.2932 13.639L21.1714 15.3938C21.24 15.4579 21.2531 15.5561 21.2078 15.6334L19.6289 18.3269C19.5831 18.405 19.4851 18.4482 19.388 18.4224L16.7893 17.7323C16.4275 17.6363 16.0548 17.7153 15.7637 17.912C15.4218 18.1431 15.0605 18.3451 14.6836 18.516C14.3446 18.6698 14.0698 18.9707 13.9797 19.3602L13.4053 21.8428C13.3851 21.9299 13.3033 22 13.1995 22L10.0482 22C9.94746 22 9.86686 21.9337 9.84412 21.8496L9.15151 19.2879C9.05325 18.9245 8.79353 18.6444 8.47583 18.4949C8.10153 18.3187 7.7432 18.1115 7.40471 17.8756C7.09907 17.6627 6.70088 17.5816 6.32075 17.6972L3.85058 18.4486C3.75174 18.4786 3.64939 18.4357 3.60222 18.3552L2.02662 15.6673C1.98214 15.5915 1.99386 15.4955 2.0593 15.4312L3.96544 13.5596C4.23378 13.2961 4.35271 12.9333 4.32489 12.5816C4.29259 12.1732 4.29577 11.7629 4.33438 11.355C4.3691 10.9884 4.244 10.6083 3.95796 10.3391L2.06857 8.56133C2.00042 8.49721 1.98752 8.39931 2.03274 8.32219ZM2.03274 8.32219L1.60138 8.06933M8.58091 12C8.58091 10.3503 9.94086 9 11.6345 9C13.3281 9 14.6881 10.3503 14.6881 12C14.6881 13.6497 13.3281 15 11.6345 15C9.94086 15 8.58091 13.6497 8.58091 12ZM11.6345 8C9.40295 8 7.58091 9.78373 7.58091 12C7.58091 14.2163 9.40295 16 11.6345 16C13.866 16 15.6881 14.2163 15.6881 12C15.6881 9.78373 13.866 8 11.6345 8Z" stroke="#A6ADB8" stroke-width="0.5"/>
</svg>
