<svg width="20" height="20" viewBox="0 0 20 20" fill="none" xmlns="http://www.w3.org/2000/svg">
<path d="M9.91248 0.019453C9.83793 0.0518675 8.60292 1.1248 3.17666 5.87682C2.88169 6.1329 2.06159 6.85251 1.35494 7.47164C0.648298 8.09076 0.0518639 8.62561 0.0356564 8.66126C0.012966 8.70016 0 9.02755 0 9.53322C0 10.201 0.00972447 10.3501 0.0486224 10.3825C0.106969 10.4311 0.0713128 10.4538 0.777958 9.89627C1.48784 9.33549 2.2269 8.75202 3.9222 7.42301C4.60616 6.88493 5.35819 6.29498 5.59157 6.11021C6.00972 5.77958 7.34846 4.72934 8.2107 4.05511C8.67747 3.69206 8.75851 3.65316 8.92383 3.74392C8.97893 3.76986 12.6742 6.02593 14.6029 7.20583C14.7293 7.28039 14.8947 7.38412 14.9757 7.43274C15.0567 7.48136 15.3193 7.64019 15.5592 7.7893C15.799 7.93517 16.1945 8.17828 16.4344 8.32415C16.6742 8.47001 17.0697 8.70988 17.3096 8.85899C17.5494 9.00486 17.8574 9.19287 17.9903 9.2739C18.1232 9.35494 18.5964 9.64667 19.0438 9.91896C19.5332 10.2237 19.8768 10.4149 19.919 10.4084C19.9806 10.3987 19.9838 10.376 19.9935 9.55915C20 8.86548 19.9935 8.70664 19.9546 8.6483C19.9287 8.60616 19.1572 7.91896 18.2431 7.11831C17.329 6.31767 15.8088 4.98541 14.8622 4.15883C13.919 3.33225 12.4765 2.07131 11.6596 1.35819C10.8428 0.641819 10.1361 0.0421429 10.0875 0.019453C10.0227 -0.00647926 9.97731 -0.00647926 9.91248 0.019453Z" fill="black"/>
<path d="M6.66126 6.65802C4.95948 7.96758 3.40357 9.16694 1.46515 10.6548L0 11.7828L0.00648298 12.6613C0.0162075 13.6596 0.00972447 13.637 0.262561 13.4684C0.405186 13.3744 1.21232 12.8558 1.74392 12.5186C1.89951 12.4182 3.03404 11.6985 4.26256 10.9173C5.49433 10.1361 6.56402 9.45543 6.64506 9.40356C6.72285 9.3517 6.8201 9.30308 6.85899 9.29335C6.90113 9.28363 9.42301 10.107 13.4133 11.436C16.9822 12.6256 19.9222 13.5916 19.9514 13.5786C19.9935 13.5624 20 13.4392 20 12.6613C20 12.1653 19.987 11.7439 19.9741 11.7245C19.9611 11.705 19.7245 11.5721 19.4489 11.4295C19.1734 11.2869 18.6126 10.9919 18.201 10.778C17.7925 10.5673 16.8947 10.1005 16.2075 9.74068C15.5203 9.38412 14.6451 8.93031 14.2626 8.72933C13.8801 8.52836 13.1864 8.16856 12.7229 7.92869C12.2593 7.68557 11.7212 7.40681 11.5235 7.30308C11.0762 7.06645 9.71475 6.3598 8.86872 5.91896C8.51216 5.73744 8.18476 5.58509 8.13938 5.58509C8.0778 5.58509 7.6564 5.89303 6.66126 6.65802Z" fill="black"/>
<path d="M3.16045 13.0081C1.50405 14.0032 0.113452 14.8428 0.0713128 14.872L0 14.9238L0.00648298 15.8055L0.0162075 16.6872L0.12966 16.684C0.191248 16.6807 0.628849 16.5316 1.10211 16.3468C1.57536 16.1653 2.0551 15.9838 2.1718 15.9417C2.36305 15.8736 2.7423 15.731 3.16045 15.5689C3.25121 15.5365 3.69854 15.3679 4.15883 15.1961L4.99514 14.8849L6.31442 15.0502C7.04052 15.1378 7.97083 15.2545 8.37925 15.3096C9.23501 15.4198 10.1135 15.53 11.248 15.6661C11.6856 15.7212 12.3209 15.799 12.658 15.8444C12.9984 15.8898 13.4716 15.9481 13.7115 15.9741C13.9514 16.0032 14.3112 16.0454 14.5057 16.0713C14.9238 16.1297 15.1345 16.1556 17.1799 16.4117C18.0259 16.5154 18.9498 16.6321 19.2318 16.671C19.5138 16.7099 19.799 16.7358 19.8639 16.7293L19.9838 16.7196V15.812V14.9044L19.6758 14.8169C19.5073 14.7715 18.5802 14.5186 17.6175 14.2561C16.6548 13.9968 15.423 13.6596 14.8784 13.5105C14.3339 13.3614 13.3711 13.0989 12.7391 12.9271C12.107 12.7553 10.4182 12.295 8.98541 11.9028C7.55267 11.5138 6.33711 11.1929 6.27877 11.1961C6.20097 11.1961 5.39708 11.6661 3.16045 13.0081Z" fill="black"/>
<path d="M3.33874 17.0762C2.82982 17.222 1.88979 17.4943 1.24797 17.6759C0.606159 17.8574 0.0615883 18.0227 0.0421394 18.0389C0.00972447 18.0648 0 18.2755 0 18.8979V19.7212L0.0810373 19.799L0.158833 19.8801H10H19.8412L19.919 19.799L20 19.7212V18.8914V18.0648L19.9287 18.0357C19.8865 18.0227 19.6143 17.9935 19.3193 17.9708C19.0243 17.9514 18.3404 17.8963 17.7958 17.8541C16.9433 17.7828 15.5527 17.6726 11.9125 17.3841C11.4684 17.3485 10.7455 17.2901 10.3079 17.2545C9.87034 17.2188 8.86548 17.1378 8.07131 17.0762C7.27715 17.0146 6.18476 16.9238 5.64668 16.8817C5.10535 16.8363 4.5705 16.8007 4.46353 16.8039C4.31442 16.8071 4.01945 16.8784 3.33874 17.0762Z" fill="black"/>
</svg>
