<svg width="1270" height="1269" viewBox="0 0 1270 1269" fill="none" xmlns="http://www.w3.org/2000/svg">
<path d="M1225.96 1015.24L1011.54 800.823L846.613 732.683C901.529 654.588 930.95 561.422 930.844 465.952C930.844 209.316 722.057 0.529785 465.422 0.529785C208.787 0.529785 0 209.316 0 465.952C0 722.587 208.787 931.373 465.422 931.373C561.723 931.483 655.66 901.554 734.147 845.754L802.11 1010.24L1016.52 1224.67C1030.27 1238.42 1046.6 1249.33 1064.57 1256.77C1082.53 1264.22 1101.79 1268.05 1121.24 1268.05C1140.69 1268.05 1159.94 1264.22 1177.91 1256.78C1195.88 1249.34 1212.2 1238.43 1225.96 1224.68C1239.71 1210.93 1250.62 1194.6 1258.06 1176.63C1265.5 1158.67 1269.33 1139.41 1269.34 1119.96C1269.34 1100.51 1265.51 1081.26 1258.06 1063.29C1250.62 1045.32 1239.71 1029 1225.96 1015.24ZM84.6221 465.952C84.6221 255.983 255.453 85.1519 465.422 85.1519C675.391 85.1519 846.221 255.983 846.221 465.952C846.221 675.92 675.391 846.751 465.422 846.751C255.453 846.751 84.6221 675.92 84.6221 465.952ZM1166.12 1164.84C1154.21 1176.72 1138.07 1183.39 1121.24 1183.39C1104.42 1183.39 1088.28 1176.72 1076.36 1164.84L873.874 962.345L810.688 809.404L963.635 872.59L1166.13 1075.08C1178.01 1086.99 1184.68 1103.13 1184.68 1119.96C1184.68 1136.79 1178.01 1152.92 1166.12 1164.84Z" fill="#C8CDD5"/>
</svg>
