<svg width="26" height="23" viewBox="0 0 26 23" fill="none" xmlns="http://www.w3.org/2000/svg">
<path d="M15 0.5C8.84153 0.5 4 5.15027 4 11.4943H0.5L4.82542 16.4741L4.91356 16.656L9.5 11.4943H6.19152C6.19152 6.56006 10.0695 2.54671 14.8619 2.54671C19.6542 2.54671 23.5322 6.54869 23.5322 11.4943C23.5322 16.4399 19.6542 20.4419 14.8619 20.4419C12.4712 20.4419 10.3119 19.4301 8.73644 17.8156L7.5 19.5C9.5161 21.5806 11.7881 22.5 14.8619 22.5C21.0203 22.5 25.5 17.8384 25.5 11.4943C25.5 5.1389 21.1585 0.5 15 0.5ZM14 6.5V13L19 16L20 14.5L15.5 12V6.5H14Z" fill="#A6ADB8"/>
</svg>
