<svg width="22" height="22" viewBox="0 0 22 22" fill="none" xmlns="http://www.w3.org/2000/svg">
<path fill-rule="evenodd" clip-rule="evenodd" d="M11 1.375C5.68426 1.375 1.375 5.68426 1.375 11C1.375 13.9613 2.71235 16.6103 4.81605 18.3759C4.9141 15.8045 7.02962 13.75 9.625 13.75H12.375C14.9704 13.75 17.0859 15.8045 17.1839 18.3759C19.2876 16.6103 20.625 13.9613 20.625 11C20.625 5.68426 16.3157 1.375 11 1.375ZM15.8125 19.3373V18.5625C15.8125 16.664 14.2735 15.125 12.375 15.125H9.625C7.72652 15.125 6.1875 16.664 6.1875 18.5625V19.3373C7.60321 20.1563 9.24687 20.625 11 20.625C12.7531 20.625 14.3968 20.1563 15.8125 19.3373ZM0 11C0 4.92487 4.92487 0 11 0C17.0751 0 22 4.92487 22 11C22 17.0751 17.0751 22 11 22C4.92487 22 0 17.0751 0 11ZM11 6.875C9.86091 6.875 8.9375 7.79841 8.9375 8.9375C8.9375 10.0766 9.86091 11 11 11C12.1391 11 13.0625 10.0766 13.0625 8.9375C13.0625 7.79841 12.1391 6.875 11 6.875ZM7.5625 8.9375C7.5625 7.03902 9.10152 5.5 11 5.5C12.8985 5.5 14.4375 7.03902 14.4375 8.9375C14.4375 10.836 12.8985 12.375 11 12.375C9.10152 12.375 7.5625 10.836 7.5625 8.9375Z" fill="#A6ADB8"/>
</svg>
