<svg width="52" height="44" viewBox="0 0 52 44" fill="none" xmlns="http://www.w3.org/2000/svg">
<path d="M7.41273 0.261379C3.63409 1.18243 0.77829 4.2692 0.0923987 8.15255C-0.0946626 9.21051 0.0175742 11.4883 0.291931 12.5089C0.803232 14.351 2.11266 16.3424 3.63409 17.5622C4.61928 18.3588 5.44235 18.782 6.95131 19.2923L8.24827 19.7279L8.42286 20.4C8.88428 22.2546 9.68241 23.6237 11.0791 25.0177C12.5881 26.5113 14.2467 27.3702 16.3667 27.7436C16.8531 27.8307 21.143 27.8805 28.6878 27.8805C38.3901 27.8805 40.2607 27.9054 40.2607 28.0547C40.2607 28.1419 40.0612 28.6148 39.8118 29.1002C39.2755 30.1831 38.2155 31.2784 37.1804 31.8385C35.659 32.6475 36.6068 32.6102 17.4018 32.6102C7.8118 32.6102 -0.0198381 32.6475 0.00510341 32.6973C0.0300449 32.7596 2.58655 35.3111 5.69177 38.3979L11.341 43.9989H27.5156C45.7728 43.9989 44.376 44.0736 46.5584 43.0031C49.1523 41.7336 51.023 39.4434 51.7463 36.618C52.2451 34.6763 51.9957 32.1497 51.1103 30.2827C49.8632 27.6191 47.394 25.5654 44.6379 24.9306C43.7775 24.719 43.7525 24.7066 43.6777 24.271C43.6278 24.0345 43.4657 23.4619 43.3036 23.0138C42.2061 19.952 39.7369 17.6742 36.5444 16.7656C35.5966 16.4918 35.4969 16.4918 23.7369 16.4669C17.2272 16.442 11.8274 16.4047 11.7401 16.3673C11.6278 16.33 11.6528 16.1433 11.8274 15.633C12.4883 13.6913 14.1469 12.1728 16.2046 11.6127C16.9529 11.4011 18.1002 11.3887 34.4369 11.426C44.0144 11.4385 51.8585 11.4136 51.8585 11.3513C51.8585 11.3016 49.3145 8.72509 46.2093 5.62588L40.56 0L24.4852 0.0124474C9.03393 0.0124474 8.36051 0.0248947 7.41273 0.261379ZM41.5327 5.56365C42.8172 6.84565 43.8647 7.9534 43.8398 8.02808C43.8149 8.10276 39.288 8.15255 30.1469 8.15255C14.758 8.15255 15.7806 8.09032 13.6481 9.13583C11.0667 10.4054 9.3457 12.4591 8.5351 15.1973C8.18592 16.4047 8.16098 16.4171 6.90143 15.8197C4.90611 14.8862 3.43456 12.7329 3.25997 10.4676C3.01056 7.11948 5.05576 4.18207 8.18592 3.43527C8.77204 3.28591 11.5904 3.26102 24.0362 3.24857L39.1882 3.23613L41.5327 5.56365ZM35.9084 19.9893C36.9684 20.3005 37.6917 20.7237 38.5522 21.5202C39.3753 22.2919 40.2607 23.7606 40.2607 24.3456V24.6444H28.825C16.3543 24.6444 16.3792 24.6444 14.9451 23.9349C13.9848 23.4619 12.6006 22.043 12.1017 21.0473C11.4034 19.6408 10.0191 19.7902 23.4626 19.7902C33.9131 19.7902 35.2973 19.8151 35.9084 19.9893ZM45.1243 28.5277C46.2467 29.0754 47.581 30.4196 48.1048 31.5149C49.7759 35.0249 47.9926 39.2069 44.3137 40.4267C43.5904 40.6632 43.129 40.6756 28.1516 40.7254L12.7377 40.7628L12.189 40.2649C11.1914 39.3812 7.96145 36.0828 7.96145 35.9708C7.96145 35.8961 12.9373 35.8463 21.4174 35.8463C36.8312 35.8463 36.2326 35.8837 38.3277 34.8506C39.8367 34.1287 40.984 33.1952 41.857 32.0252C42.5553 31.0917 43.2662 29.6603 43.528 28.702C43.6527 28.2165 43.7276 28.1294 43.9895 28.1294C44.164 28.1294 44.6754 28.3037 45.1243 28.5277Z" fill="black"/>
<path d="M35.9084 19.9893C36.9684 20.3005 37.6917 20.7237 38.5522 21.5202C39.3753 22.2919 40.2607 23.7606 40.2607 24.3456V24.6444H28.825C16.3543 24.6444 16.3792 24.6444 14.9451 23.9349C13.9848 23.4619 12.6006 22.043 12.1017 21.0473C11.4034 19.6408 10.0191 19.7902 23.4626 19.7902C33.9131 19.7902 35.2973 19.8151 35.9084 19.9893Z" fill="#CAAEE9"/>
<path d="M45.1243 28.5277C46.2467 29.0754 47.581 30.4196 48.1048 31.5149C49.7759 35.0249 47.9926 39.2069 44.3137 40.4267C43.5904 40.6632 43.129 40.6756 28.1516 40.7254L12.7377 40.7628L12.189 40.2649C11.1914 39.3812 7.96145 36.0828 7.96145 35.9708C7.96145 35.8961 12.9373 35.8463 21.4174 35.8463C36.8312 35.8463 36.2326 35.8837 38.3277 34.8506C39.8367 34.1287 40.984 33.1952 41.857 32.0252C42.5553 31.0917 43.2662 29.6603 43.528 28.702C43.6527 28.2165 43.7276 28.1294 43.9895 28.1294C44.164 28.1294 44.6754 28.3037 45.1243 28.5277Z" fill="#CAAEE9"/>
<path d="M41.5327 5.56365C42.8172 6.84565 43.8647 7.9534 43.8398 8.02808C43.8149 8.10276 39.288 8.15255 30.1469 8.15255C14.758 8.15255 15.7806 8.09032 13.6481 9.13583C11.0667 10.4054 9.3457 12.4591 8.5351 15.1973C8.18592 16.4047 8.16098 16.4171 6.90143 15.8197C4.90611 14.8862 3.43456 12.7329 3.25997 10.4676C3.01056 7.11948 5.05576 4.18207 8.18592 3.43527C8.77204 3.28591 11.5904 3.26102 24.0362 3.24857L39.1882 3.23613L41.5327 5.56365Z" fill="#CAAEE9"/>
</svg>
